<svg width="180" height="180" viewBox="0 0 180 180" fill="none" xmlns="http://www.w3.org/2000/svg">
<rect width="180" height="180" rx="30" fill="#D52D2D"/>
<circle cx="90.5" cy="89.5" r="52.5" fill="url(#paint0_linear_205_867)"/>
<path d="M119.617 129.345C114.385 133.168 108.451 135.924 102.153 137.454C95.8557 138.985 89.3185 139.26 82.9148 138.264C76.5111 137.267 70.3662 135.02 64.8312 131.649C59.2961 128.278 54.4791 123.85 50.6554 118.617C46.8316 113.385 44.0759 107.451 42.5456 101.153C41.0153 94.8557 40.7403 88.3185 41.7364 81.9148C42.7325 75.511 44.9802 69.3662 48.3511 63.8311C51.7219 58.2961 56.15 53.4791 61.3825 49.6554C66.615 45.8316 72.5494 43.0759 78.8468 41.5456C85.1443 40.0153 91.6815 39.7403 98.0852 40.7364C104.489 41.7325 110.634 43.9802 116.169 47.3511C121.704 50.7219 126.521 55.15 130.345 60.3825C134.168 65.615 136.924 71.5494 138.454 77.8468C139.985 84.1443 140.26 90.6815 139.264 97.0852C138.267 103.489 136.02 109.634 132.649 115.169C129.278 120.704 124.85 125.521 119.617 129.345L119.617 129.345Z" stroke="#180202" stroke-width="6.3"/>
<circle cx="90.4999" cy="89.4998" r="22.75" fill="#180202"/>
<circle cx="90.5007" cy="89.5007" r="17.5" fill="#D52D2D"/>
<circle cx="90.4995" cy="89.4995" r="15.75" fill="#C52B2B"/>
<circle cx="90.5005" cy="89.5005" r="10.5" fill="#6D1212"/>
<circle cx="72.125" cy="72.8738" r="7.875" fill="white"/>
<defs>
<linearGradient id="paint0_linear_205_867" x1="93.125" y1="142" x2="90.5" y2="40.5" gradientUnits="userSpaceOnUse">
<stop stop-color="#F1F1F1"/>
<stop offset="1" stop-color="#F1F1F1"/>
</linearGradient>
</defs>
</svg>
